<svg width="25" height="21" viewBox="0 0 25 21" fill="none" xmlns="http://www.w3.org/2000/svg">
<path d="M19.4167 1H22.25C22.6257 1 22.9861 1.14926 23.2517 1.41493C23.5174 1.68061 23.6667 2.04094 23.6667 2.41667V3.83333C23.6667 4.20906 23.5174 4.56939 23.2517 4.83507C22.9861 5.10074 22.6257 5.25 22.25 5.25H20.8333C20.4576 5.25 20.0973 5.39926 19.8316 5.66493C19.5659 5.93061 19.4167 6.29094 19.4167 6.66667V8.08333C19.4167 8.45906 19.5659 8.81939 19.8316 9.08507C20.0973 9.35074 20.4576 9.5 20.8333 9.5H23.6667M1 10.9167V19.4167M1 13.75C1 12.9986 1.29851 12.2779 1.82986 11.7465C2.36122 11.2152 3.08189 10.9167 3.83333 10.9167H4.54167C5.48097 10.9167 6.38181 11.2898 7.046 11.954C7.71019 12.6182 8.08333 13.519 8.08333 14.4583M8.08333 14.4583V19.4167M8.08333 14.4583V15.875M8.08333 14.4583C8.08333 13.519 8.45647 12.6182 9.12066 11.954C9.78485 11.2898 10.6857 10.9167 11.625 10.9167C12.5643 10.9167 13.4651 11.2898 14.1293 11.954C14.7935 12.6182 15.1667 13.519 15.1667 14.4583V19.4167" stroke="#868688" stroke-width="2" stroke-linecap="round" stroke-linejoin="round"/>
</svg>
